<?xml version="1.0" encoding="UTF-8"?>
<svg width="500px" height="175px" viewBox="0 0 500 175" version="1.1" xmlns="http://www.w3.org/2000/svg" xmlns:xlink="http://www.w3.org/1999/xlink">
    <!-- Generator: Sketch 56.2 (81672) - https://sketch.com -->
    <title>letter-return</title>
    <desc>Created with Sketch.</desc>
    <g id="letter-return" stroke="none" stroke-width="1" fill="none" fill-rule="evenodd">
        <rect fill="#FFFFFF" x="0" y="0" width="500" height="175"></rect>
        <rect id="Rectangle-Copy-9" fill="#0091FF" opacity="0.200000003" x="7.5" y="108.75" width="46.25" height="21.25" rx="10.625"></rect>
        <rect id="Rectangle-Copy-10" fill="#0091FF" opacity="0.200000003" x="58.75" y="108.75" width="47.5" height="33.75" rx="16.875"></rect>
        <rect id="Rectangle-Copy-11" fill="#0091FF" opacity="0.200000003" x="111.25" y="108.75" width="46.25" height="33.75" rx="16.875"></rect>
        <rect id="Rectangle-Copy-12" fill="#0091FF" opacity="0.200000003" x="162.5" y="108.75" width="47.5" height="33.75" rx="16.875"></rect>
        <rect id="Rectangle-Copy-13" fill="#0091FF" opacity="0.200000003" x="215" y="108.75" width="72.5" height="33.75" rx="16.875"></rect>
        <rect id="Rectangle-Copy-14" fill="#0091FF" opacity="0.200000003" x="292.5" y="108.75" width="46.25" height="33.75" rx="16.875"></rect>
        <rect id="Rectangle-Copy-15" fill="#0091FF" opacity="0.200000003" x="343.75" y="108.75" width="46.25" height="33.75" rx="16.875"></rect>
        <rect id="Rectangle-Copy-16" fill="#0091FF" opacity="0.200000003" x="395" y="108.75" width="46.25" height="33.75" rx="16.875"></rect>
        <rect id="Rectangle-Copy-17" fill="#0091FF" opacity="0.200000003" x="446.25" y="108.75" width="47.5" height="21.25" rx="10.625"></rect>
        <path id="Path" d="M227.896918,72.7320936 L245.915182,82.867367 C247.359255,83.6796584 247.871416,85.5088037 247.059125,86.9528774 C246.246833,88.396951 244.417688,88.9091117 242.973614,88.0968202 L214.973614,72.3468202 C212.934659,71.199908 212.934659,68.2642792 214.973614,67.117367 L242.973614,51.367367 C244.417688,50.5550756 246.246833,51.0672363 247.059125,52.5113099 C247.871416,53.9553836 247.359255,55.7845288 245.915182,56.5968202 L227.896918,66.7320936 L273.194398,66.7320936 C276.508107,66.7320936 279.194398,64.0458021 279.194398,60.7320936 L279.194398,32 C279.194398,30.3431458 280.537544,29 282.194398,29 C283.851252,29 285.194398,30.3431458 285.194398,32 L285.194398,60.7320936 C285.194398,67.3595106 279.821815,72.7320936 273.194398,72.7320936 L227.896918,72.7320936 Z" fill="#0091FF" fill-rule="nonzero"></path>
    </g>
</svg>